<svg width="56" height="56" viewBox="0 0 56 56" fill="none" xmlns="http://www.w3.org/2000/svg">
  <defs>
    <linearGradient id="folderGrad" x1="0%" y1="0%" x2="100%" y2="100%">
      <stop offset="0%" stop-color="#64D2FF"/>
      <stop offset="100%" stop-color="#5AC8FA"/>
    </linearGradient>
  </defs>
  <!-- Folder back -->
  <path d="M8 16C8 13.7909 9.79086 12 12 12H22L26 16H44C46.2091 16 48 17.7909 48 20V44C48 46.2091 46.2091 48 44 48H12C9.79086 48 8 46.2091 8 44V16Z" fill="url(#folderGrad)"/>
  <!-- Folder front -->
  <rect x="8" y="20" width="40" height="28" rx="3" fill="#007AFF" opacity="0.6"/>
  <!-- Gear badge -->
  <circle cx="42" cy="42" r="10" fill="#0A2540"/>
  <circle cx="42" cy="42" r="8" fill="#5AC8FA"/>
  <circle cx="42" cy="42" r="3" fill="#0A2540"/>
  <!-- Gear teeth -->
  <rect x="40" y="32" width="4" height="4" rx="1" fill="#5AC8FA"/>
  <rect x="40" y="48" width="4" height="4" rx="1" fill="#5AC8FA"/>
  <rect x="32" y="40" width="4" height="4" rx="1" fill="#5AC8FA"/>
  <rect x="48" y="40" width="4" height="4" rx="1" fill="#5AC8FA"/>
</svg>
