<svg width="56" height="56" viewBox="0 0 56 56" fill="none" xmlns="http://www.w3.org/2000/svg">
  <defs>
    <linearGradient id="githubGrad" x1="0%" y1="0%" x2="100%" y2="100%">
      <stop offset="0%" stop-color="#2D333B"/>
      <stop offset="100%" stop-color="#1C2128"/>
    </linearGradient>
  </defs>
  <!-- App container -->
  <rect x="4" y="4" width="48" height="48" rx="12" fill="url(#githubGrad)"/>
  <!-- GitHub Octocat logo -->
  <path d="M28 10C17.5066 10 9 18.5066 9 29C9 37.3834 14.2933 44.4384 21.6475 46.85C22.5975 47.02 22.9475 46.4325 22.9475 45.9275C22.9475 45.4733 22.9308 44.0808 22.9225 42.575C17.3675 43.7225 16.245 40.1925 16.245 40.1925C15.3825 38.0775 14.1325 37.4892 14.1325 37.4892C12.4075 36.3125 14.265 36.3375 14.265 36.3375C16.1775 36.4733 17.1825 38.3 17.1825 38.3C18.875 41.2175 21.6708 40.3683 22.9808 39.8783C23.1525 38.7083 23.6275 37.8583 24.1525 37.385C19.58 36.905 14.775 35.2183 14.775 27.9608C14.775 25.9658 15.5075 24.3375 17.2175 23.0625C17.0225 22.5825 16.365 20.7258 17.4025 18.2175C17.4025 18.2175 18.9925 17.7058 22.9 20.0608C24.42 19.6417 26.0175 19.4325 27.6108 19.425C29.1983 19.4358 30.7958 19.6417 32.3183 20.0633C36.2208 17.7092 37.8025 18.22 37.8025 18.22C38.845 20.7342 38.1875 22.5883 37.9925 23.065C39.7075 24.34 40.4325 25.9692 40.4325 27.9633C40.4325 35.2375 35.6175 36.9 31.0325 37.3675C31.6883 37.9433 32.2725 39.0842 32.2725 40.835C32.2725 43.34 32.2475 45.36 32.2475 45.9275C32.2475 46.4383 32.5917 47.0308 33.5592 46.8475C40.7108 44.43 46 37.38 46 29C46 18.5066 37.4934 10 28 10Z" fill="white"/>
</svg>
